<?xml version="1.0" encoding="UTF-8"?>
<svg xmlns="http://www.w3.org/2000/svg" xmlns:xlink="http://www.w3.org/1999/xlink" width="21px" height="21px" viewBox="0 0 21 21" version="1.1">
<g id="surface1">
<path style=" stroke:none;fill-rule:nonzero;fill:rgb(71.372549%,71.372549%,71.372549%);fill-opacity:1;" d="M 10.5 0 C 4.707031 0 0 4.707031 0 10.5 C 0 16.292969 4.707031 21 10.5 21 C 16.292969 21 21 16.292969 21 10.5 C 21 4.707031 16.292969 0 10.5 0 Z M 10.5 19.617188 C 5.472656 19.617188 1.382812 15.527344 1.382812 10.5 C 1.382812 5.472656 5.472656 1.382812 10.5 1.382812 C 15.527344 1.382812 19.617188 5.472656 19.617188 10.5 C 19.617188 15.527344 15.527344 19.617188 10.5 19.617188 Z M 10.5 19.617188 "/>
<path style=" stroke:none;fill-rule:nonzero;fill:rgb(71.372549%,71.372549%,71.372549%);fill-opacity:1;" d="M 11.1875 9.878906 L 11.1875 5.957031 C 11.582031 6.101562 11.921875 6.371094 12.160156 6.730469 C 12.371094 7.046875 12.796875 7.136719 13.117188 6.925781 C 13.4375 6.714844 13.523438 6.289062 13.3125 5.96875 C 12.816406 5.21875 12.054688 4.703125 11.1875 4.523438 L 11.1875 3.425781 C 11.1875 3.042969 10.882812 2.734375 10.5 2.734375 C 10.117188 2.734375 9.8125 3.042969 9.8125 3.425781 L 9.8125 4.519531 C 8.28125 4.839844 7.128906 6.199219 7.128906 7.820312 C 7.128906 9.441406 8.28125 10.800781 9.8125 11.121094 L 9.8125 15.042969 C 9.417969 14.898438 9.078125 14.628906 8.839844 14.269531 C 8.628906 13.953125 8.203125 13.863281 7.882812 14.074219 C 7.5625 14.285156 7.476562 14.710938 7.6875 15.03125 C 8.183594 15.78125 8.945312 16.296875 9.8125 16.476562 L 9.8125 17.574219 C 9.8125 17.957031 10.117188 18.265625 10.5 18.265625 C 10.882812 18.265625 11.1875 17.957031 11.1875 17.574219 L 11.1875 16.480469 C 12.71875 16.160156 13.871094 14.800781 13.871094 13.179688 C 13.871094 11.558594 12.71875 10.199219 11.1875 9.878906 Z M 8.511719 7.820312 C 8.511719 6.964844 9.050781 6.238281 9.8125 5.960938 L 9.8125 9.683594 C 9.050781 9.402344 8.511719 8.675781 8.511719 7.820312 Z M 11.1875 15.039062 L 11.1875 11.316406 C 11.949219 11.597656 12.488281 12.324219 12.488281 13.179688 C 12.488281 14.03125 11.949219 14.761719 11.1875 15.039062 Z M 11.1875 15.039062 "/>
</g>
</svg>
