<?xml version="1.0" standalone="no"?>
<!DOCTYPE svg PUBLIC "-//W3C//DTD SVG 20010904//EN"
 "http://www.w3.org/TR/2001/REC-SVG-20010904/DTD/svg10.dtd">
<svg version="1.0" xmlns="http://www.w3.org/2000/svg"
 width="18.000000pt" height="16.000000pt" viewBox="0 0 18.000000 16.000000"
 preserveAspectRatio="xMidYMid meet">

<g transform="translate(0.000000,16.000000) scale(0.100000,-0.100000)"
fill="#000000" stroke="none">
<path d="M74 146 c-9 -22 -1 -49 16 -54 13 -5 13 -3 1 12 -12 14 -12 22 -3 37
8 12 8 19 2 19 -6 0 -13 -6 -16 -14z"/>
<path d="M123 143 c15 -16 15 -18 0 -35 -9 -10 -11 -18 -5 -18 6 0 16 8 21 18
11 20 -3 52 -22 52 -6 0 -4 -7 6 -17z"/>
<path d="M96 125 c4 -8 8 -15 10 -15 2 0 4 7 4 15 0 8 -4 15 -10 15 -5 0 -7
-7 -4 -15z"/>
<path d="M139 73 l-24 -28 28 24 c15 14 27 20 27 13 0 -6 -12 -20 -26 -31 -15
-12 -22 -21 -17 -21 19 0 57 50 47 60 -7 7 -18 1 -35 -17z"/>
<path d="M28 62 c-33 -20 -34 -24 -8 -47 18 -16 22 -17 38 -3 9 9 24 18 32 22
8 3 5 4 -7 2 -26 -5 -54 21 -32 28 41 13 44 14 24 15 -11 0 -32 -7 -47 -17z
m22 -44 c0 -6 -7 -5 -15 2 -8 7 -15 17 -15 22 0 6 7 5 15 -2 8 -7 15 -17 15
-22z"/>
</g>
</svg>
